<mxfile host="app.diagrams.net" modified="2024-05-07T13:10:18.525Z" agent="Mozilla/5.0 (Windows NT 10.0; Win64; x64) AppleWebKit/537.36 (KHTML, like Gecko) Chrome/121.0.0.0 Safari/537.36 OPR/107.0.0.0" version="24.2.8" etag="3S4DSztYsxIa6ukjWIAN" type="github">
  <diagram name="Page-1" id="bzlgv5gwnfcriH5inW2E">
    <mxGraphModel>
      <root>
        <mxCell id="0" />
        <mxCell id="1" parent="0" />
      </root>
    </mxGraphModel>
  </diagram>
</mxfile>
